<mxfile host="app.diagrams.net" agent="Mozilla/5.0 (Macintosh; Intel Mac OS X 10_15_7) AppleWebKit/605.1.15 (KHTML, like Gecko) Version/18.3 Safari/605.1.15" version="26.0.14">
  <diagram name="Pagina-1" id="KGUR4n6IYwUImmlLGVA5">
    <mxGraphModel dx="1696" dy="2126" grid="0" gridSize="10" guides="1" tooltips="1" connect="1" arrows="1" fold="1" page="1" pageScale="1" pageWidth="1169" pageHeight="1654" math="0" shadow="0">
      <root>
        <mxCell id="0" />
        <mxCell id="1" parent="0" />
        <mxCell id="h8HGVI2y8s-tC2vq9ReO-1" style="edgeStyle=orthogonalEdgeStyle;rounded=0;orthogonalLoop=1;jettySize=auto;html=1;entryX=-0.006;entryY=0.138;entryDx=0;entryDy=0;strokeWidth=2;entryPerimeter=0;exitX=1;exitY=0;exitDx=0;exitDy=0;" edge="1" parent="1" source="h8HGVI2y8s-tC2vq9ReO-2" target="h8HGVI2y8s-tC2vq9ReO-13">
          <mxGeometry relative="1" as="geometry">
            <Array as="points">
              <mxPoint x="587" y="157" />
              <mxPoint x="631" y="157" />
              <mxPoint x="631" y="71" />
            </Array>
          </mxGeometry>
        </mxCell>
        <mxCell id="h8HGVI2y8s-tC2vq9ReO-2" value="Known Parameters" style="shape=table;startSize=30;container=1;collapsible=1;childLayout=tableLayout;fixedRows=1;rowLines=0;fontStyle=1;align=center;resizeLast=1;html=1;whiteSpace=wrap;fontSize=16;strokeWidth=2;rounded=0;" vertex="1" parent="1">
          <mxGeometry x="191" y="52" width="396.0000000000002" height="210" as="geometry" />
        </mxCell>
        <mxCell id="h8HGVI2y8s-tC2vq9ReO-3" value="" style="shape=tableRow;horizontal=0;startSize=0;swimlaneHead=0;swimlaneBody=0;fillColor=none;collapsible=0;dropTarget=0;points=[[0,0.5],[1,0.5]];portConstraint=eastwest;top=0;left=0;right=0;bottom=1;html=1;" vertex="1" parent="h8HGVI2y8s-tC2vq9ReO-2">
          <mxGeometry y="30" width="396.0000000000002" height="80" as="geometry" />
        </mxCell>
        <mxCell id="h8HGVI2y8s-tC2vq9ReO-4" value="Propellant &amp;amp; Combustion Properties" style="shape=partialRectangle;connectable=0;fillColor=none;top=0;left=0;bottom=0;right=0;fontStyle=1;overflow=hidden;html=1;whiteSpace=wrap;" vertex="1" parent="h8HGVI2y8s-tC2vq9ReO-3">
          <mxGeometry width="100" height="80" as="geometry">
            <mxRectangle width="100" height="80" as="alternateBounds" />
          </mxGeometry>
        </mxCell>
        <mxCell id="h8HGVI2y8s-tC2vq9ReO-5" value="fuel density, oxidizer density, oxidizer mass flow, oxidizer specific heats, oxidizer gas constant, combustion products specific heats, initial temperature, flame temperature, combustion products gas constant, 1D model parameters (a, n, m)" style="shape=partialRectangle;connectable=0;fillColor=none;top=0;left=0;bottom=0;right=0;align=center;spacingLeft=6;fontStyle=2;overflow=hidden;html=1;whiteSpace=wrap;strokeWidth=1;" vertex="1" parent="h8HGVI2y8s-tC2vq9ReO-3">
          <mxGeometry x="100" width="296.0000000000002" height="80" as="geometry">
            <mxRectangle width="296.0000000000002" height="80" as="alternateBounds" />
          </mxGeometry>
        </mxCell>
        <mxCell id="h8HGVI2y8s-tC2vq9ReO-6" style="shape=tableRow;horizontal=0;startSize=0;swimlaneHead=0;swimlaneBody=0;fillColor=none;collapsible=0;dropTarget=0;points=[[0,0.5],[1,0.5]];portConstraint=eastwest;top=0;left=0;right=0;bottom=1;html=1;" vertex="1" parent="h8HGVI2y8s-tC2vq9ReO-2">
          <mxGeometry y="110" width="396.0000000000002" height="50" as="geometry" />
        </mxCell>
        <mxCell id="h8HGVI2y8s-tC2vq9ReO-7" value="Initial Solid Fuel Geometry" style="shape=partialRectangle;connectable=0;fillColor=none;top=0;left=0;bottom=0;right=0;fontStyle=1;overflow=hidden;html=1;whiteSpace=wrap;" vertex="1" parent="h8HGVI2y8s-tC2vq9ReO-6">
          <mxGeometry width="100" height="50" as="geometry">
            <mxRectangle width="100" height="50" as="alternateBounds" />
          </mxGeometry>
        </mxCell>
        <mxCell id="h8HGVI2y8s-tC2vq9ReO-8" value="initial port radius, solid fuel length, solid fuel inner-surface roughness, case radius" style="shape=partialRectangle;connectable=0;fillColor=none;top=0;left=0;bottom=0;right=0;align=center;spacingLeft=6;fontStyle=2;overflow=hidden;html=1;whiteSpace=wrap;horizontal=1;strokeWidth=1;" vertex="1" parent="h8HGVI2y8s-tC2vq9ReO-6">
          <mxGeometry x="100" width="296.0000000000002" height="50" as="geometry">
            <mxRectangle width="296.0000000000002" height="50" as="alternateBounds" />
          </mxGeometry>
        </mxCell>
        <mxCell id="h8HGVI2y8s-tC2vq9ReO-9" style="shape=tableRow;horizontal=0;startSize=0;swimlaneHead=0;swimlaneBody=0;fillColor=none;collapsible=0;dropTarget=0;points=[[0,0.5],[1,0.5]];portConstraint=eastwest;top=0;left=0;right=0;bottom=1;html=1;" vertex="1" parent="h8HGVI2y8s-tC2vq9ReO-2">
          <mxGeometry y="160" width="396.0000000000002" height="50" as="geometry" />
        </mxCell>
        <mxCell id="h8HGVI2y8s-tC2vq9ReO-10" value="References Estimation for Viscosity" style="shape=partialRectangle;connectable=0;fillColor=none;top=0;left=0;bottom=0;right=0;fontStyle=1;overflow=hidden;html=1;whiteSpace=wrap;" vertex="1" parent="h8HGVI2y8s-tC2vq9ReO-9">
          <mxGeometry width="100" height="50" as="geometry">
            <mxRectangle width="100" height="50" as="alternateBounds" />
          </mxGeometry>
        </mxCell>
        <mxCell id="h8HGVI2y8s-tC2vq9ReO-11" value="dynamic viscosity of reference, temperature of reference, constant C for the estimation" style="shape=partialRectangle;connectable=0;fillColor=none;top=0;left=0;bottom=0;right=0;align=center;spacingLeft=6;fontStyle=2;overflow=hidden;html=1;whiteSpace=wrap;" vertex="1" parent="h8HGVI2y8s-tC2vq9ReO-9">
          <mxGeometry x="100" width="296.0000000000002" height="50" as="geometry">
            <mxRectangle width="296.0000000000002" height="50" as="alternateBounds" />
          </mxGeometry>
        </mxCell>
        <mxCell id="h8HGVI2y8s-tC2vq9ReO-12" style="edgeStyle=orthogonalEdgeStyle;rounded=0;orthogonalLoop=1;jettySize=auto;html=1;entryX=0.5;entryY=0;entryDx=0;entryDy=0;targetPerimeterSpacing=0;strokeWidth=2;" edge="1" parent="1" source="h8HGVI2y8s-tC2vq9ReO-13" target="h8HGVI2y8s-tC2vq9ReO-25">
          <mxGeometry relative="1" as="geometry" />
        </mxCell>
        <mxCell id="h8HGVI2y8s-tC2vq9ReO-13" value="Initial Evaluations" style="shape=table;startSize=30;container=1;collapsible=1;childLayout=tableLayout;fixedRows=1;rowLines=0;fontStyle=1;align=center;resizeLast=1;html=1;whiteSpace=wrap;fontSize=16;strokeWidth=2;" vertex="1" parent="1">
          <mxGeometry x="671" y="52" width="326.0000000000002" height="140.00000000000057" as="geometry" />
        </mxCell>
        <mxCell id="h8HGVI2y8s-tC2vq9ReO-14" value="" style="shape=tableRow;horizontal=0;startSize=0;swimlaneHead=0;swimlaneBody=0;fillColor=none;collapsible=0;dropTarget=0;points=[[0,0.5],[1,0.5]];portConstraint=eastwest;top=0;left=0;right=0;bottom=1;html=1;" vertex="1" parent="h8HGVI2y8s-tC2vq9ReO-13">
          <mxGeometry y="30" width="326.0000000000002" height="20" as="geometry" />
        </mxCell>
        <mxCell id="h8HGVI2y8s-tC2vq9ReO-15" value="Geometry" style="shape=partialRectangle;connectable=0;fillColor=none;top=0;left=0;bottom=0;right=0;fontStyle=1;overflow=hidden;html=1;whiteSpace=wrap;" vertex="1" parent="h8HGVI2y8s-tC2vq9ReO-14">
          <mxGeometry width="100" height="20" as="geometry">
            <mxRectangle width="100" height="20" as="alternateBounds" />
          </mxGeometry>
        </mxCell>
        <mxCell id="h8HGVI2y8s-tC2vq9ReO-16" value="initial port area" style="shape=partialRectangle;connectable=0;fillColor=none;top=0;left=0;bottom=0;right=0;align=center;spacingLeft=6;fontStyle=2;overflow=hidden;html=1;whiteSpace=wrap;strokeWidth=1;" vertex="1" parent="h8HGVI2y8s-tC2vq9ReO-14">
          <mxGeometry x="100" width="226.00000000000023" height="20" as="geometry">
            <mxRectangle width="226.00000000000023" height="20" as="alternateBounds" />
          </mxGeometry>
        </mxCell>
        <mxCell id="h8HGVI2y8s-tC2vq9ReO-17" style="shape=tableRow;horizontal=0;startSize=0;swimlaneHead=0;swimlaneBody=0;fillColor=none;collapsible=0;dropTarget=0;points=[[0,0.5],[1,0.5]];portConstraint=eastwest;top=0;left=0;right=0;bottom=1;html=1;" vertex="1" parent="h8HGVI2y8s-tC2vq9ReO-13">
          <mxGeometry y="50" width="326.0000000000002" height="70" as="geometry" />
        </mxCell>
        <mxCell id="h8HGVI2y8s-tC2vq9ReO-18" value="Gas Properties" style="shape=partialRectangle;connectable=0;fillColor=none;top=0;left=0;bottom=0;right=0;fontStyle=1;overflow=hidden;html=1;whiteSpace=wrap;" vertex="1" parent="h8HGVI2y8s-tC2vq9ReO-17">
          <mxGeometry width="100" height="70" as="geometry">
            <mxRectangle width="100" height="70" as="alternateBounds" />
          </mxGeometry>
        </mxCell>
        <mxCell id="h8HGVI2y8s-tC2vq9ReO-19" value="combustion products specific heats ratio, oxidizer specific heats ratio, oxidizer mass flux rate, initial total pressure, oxidizer gas velocity, sound speed" style="shape=partialRectangle;connectable=0;fillColor=none;top=0;left=0;bottom=0;right=0;align=center;spacingLeft=6;fontStyle=2;overflow=hidden;html=1;whiteSpace=wrap;horizontal=1;strokeWidth=1;" vertex="1" parent="h8HGVI2y8s-tC2vq9ReO-17">
          <mxGeometry x="100" width="226.00000000000023" height="70" as="geometry">
            <mxRectangle width="226.00000000000023" height="70" as="alternateBounds" />
          </mxGeometry>
        </mxCell>
        <mxCell id="h8HGVI2y8s-tC2vq9ReO-20" style="shape=tableRow;horizontal=0;startSize=0;swimlaneHead=0;swimlaneBody=0;fillColor=none;collapsible=0;dropTarget=0;points=[[0,0.5],[1,0.5]];portConstraint=eastwest;top=0;left=0;right=0;bottom=1;html=1;" vertex="1" parent="h8HGVI2y8s-tC2vq9ReO-13">
          <mxGeometry y="120" width="326.0000000000002" height="20" as="geometry" />
        </mxCell>
        <mxCell id="h8HGVI2y8s-tC2vq9ReO-21" value="Mach &amp;amp; Heat" style="shape=partialRectangle;connectable=0;fillColor=none;top=0;left=0;bottom=0;right=0;fontStyle=1;overflow=hidden;html=1;whiteSpace=wrap;" vertex="1" parent="h8HGVI2y8s-tC2vq9ReO-20">
          <mxGeometry width="100" height="20" as="geometry">
            <mxRectangle width="100" height="20" as="alternateBounds" />
          </mxGeometry>
        </mxCell>
        <mxCell id="h8HGVI2y8s-tC2vq9ReO-22" value="initial Mach Number, specific heat flow" style="shape=partialRectangle;connectable=0;fillColor=none;top=0;left=0;bottom=0;right=0;align=center;spacingLeft=6;fontStyle=2;overflow=hidden;html=1;whiteSpace=wrap;" vertex="1" parent="h8HGVI2y8s-tC2vq9ReO-20">
          <mxGeometry x="100" width="226.00000000000023" height="20" as="geometry">
            <mxRectangle width="226.00000000000023" height="20" as="alternateBounds" />
          </mxGeometry>
        </mxCell>
        <mxCell id="h8HGVI2y8s-tC2vq9ReO-23" style="edgeStyle=orthogonalEdgeStyle;rounded=0;orthogonalLoop=1;jettySize=auto;html=1;entryX=0.5;entryY=0;entryDx=0;entryDy=0;strokeWidth=2;exitX=0;exitY=0.11;exitDx=0;exitDy=0;exitPerimeter=0;" edge="1" parent="1" source="h8HGVI2y8s-tC2vq9ReO-25" target="h8HGVI2y8s-tC2vq9ReO-36">
          <mxGeometry relative="1" as="geometry">
            <Array as="points">
              <mxPoint x="631" y="237" />
              <mxPoint x="631" y="282" />
              <mxPoint x="385" y="282" />
            </Array>
          </mxGeometry>
        </mxCell>
        <mxCell id="h8HGVI2y8s-tC2vq9ReO-24" style="edgeStyle=orthogonalEdgeStyle;rounded=0;orthogonalLoop=1;jettySize=auto;html=1;entryX=0.5;entryY=0;entryDx=0;entryDy=0;strokeWidth=2;dashed=1;" edge="1" parent="1" source="h8HGVI2y8s-tC2vq9ReO-25" target="h8HGVI2y8s-tC2vq9ReO-67">
          <mxGeometry relative="1" as="geometry">
            <mxPoint x="801" y="402" as="targetPoint" />
            <Array as="points">
              <mxPoint x="834" y="392" />
              <mxPoint x="801" y="392" />
            </Array>
          </mxGeometry>
        </mxCell>
        <mxCell id="h8HGVI2y8s-tC2vq9ReO-25" value="Generation of step for-cycle intervals" style="shape=table;startSize=30;container=1;collapsible=1;childLayout=tableLayout;fixedRows=1;rowLines=0;fontStyle=1;align=center;resizeLast=1;html=1;whiteSpace=wrap;fontSize=16;strokeWidth=2;" vertex="1" parent="1">
          <mxGeometry x="671" y="222" width="326" height="140" as="geometry" />
        </mxCell>
        <mxCell id="h8HGVI2y8s-tC2vq9ReO-26" value="" style="shape=tableRow;horizontal=0;startSize=0;swimlaneHead=0;swimlaneBody=0;fillColor=none;collapsible=0;dropTarget=0;points=[[0,0.5],[1,0.5]];portConstraint=eastwest;top=0;left=0;right=0;bottom=1;html=1;" vertex="1" parent="h8HGVI2y8s-tC2vq9ReO-25">
          <mxGeometry y="30" width="326" height="50" as="geometry" />
        </mxCell>
        <mxCell id="h8HGVI2y8s-tC2vq9ReO-27" value="1D Model" style="shape=partialRectangle;connectable=0;fillColor=none;top=0;left=0;bottom=0;right=0;fontStyle=1;overflow=hidden;html=1;whiteSpace=wrap;" vertex="1" parent="h8HGVI2y8s-tC2vq9ReO-26">
          <mxGeometry width="100" height="50" as="geometry">
            <mxRectangle width="100" height="50" as="alternateBounds" />
          </mxGeometry>
        </mxCell>
        <mxCell id="h8HGVI2y8s-tC2vq9ReO-28" value="parameter a, regression rate, propellant mass flux rate, fuel mass flow rate, cross-section radii" style="shape=partialRectangle;connectable=0;fillColor=none;top=0;left=0;bottom=0;right=0;align=center;spacingLeft=6;fontStyle=2;overflow=hidden;html=1;whiteSpace=wrap;strokeWidth=1;" vertex="1" parent="h8HGVI2y8s-tC2vq9ReO-26">
          <mxGeometry x="100" width="226" height="50" as="geometry">
            <mxRectangle width="226" height="50" as="alternateBounds" />
          </mxGeometry>
        </mxCell>
        <mxCell id="h8HGVI2y8s-tC2vq9ReO-29" style="shape=tableRow;horizontal=0;startSize=0;swimlaneHead=0;swimlaneBody=0;fillColor=none;collapsible=0;dropTarget=0;points=[[0,0.5],[1,0.5]];portConstraint=eastwest;top=0;left=0;right=0;bottom=1;html=1;" vertex="1" parent="h8HGVI2y8s-tC2vq9ReO-25">
          <mxGeometry y="80" width="326" height="40" as="geometry" />
        </mxCell>
        <mxCell id="h8HGVI2y8s-tC2vq9ReO-30" value="Gas Properties" style="shape=partialRectangle;connectable=0;fillColor=none;top=0;left=0;bottom=0;right=0;fontStyle=1;overflow=hidden;html=1;whiteSpace=wrap;" vertex="1" parent="h8HGVI2y8s-tC2vq9ReO-29">
          <mxGeometry width="100" height="40" as="geometry">
            <mxRectangle width="100" height="40" as="alternateBounds" />
          </mxGeometry>
        </mxCell>
        <mxCell id="h8HGVI2y8s-tC2vq9ReO-31" value="Mach Number, temperature, total pressure, mass flow" style="shape=partialRectangle;connectable=0;fillColor=none;top=0;left=0;bottom=0;right=0;align=center;spacingLeft=6;fontStyle=2;overflow=hidden;html=1;whiteSpace=wrap;horizontal=1;strokeWidth=1;" vertex="1" parent="h8HGVI2y8s-tC2vq9ReO-29">
          <mxGeometry x="100" width="226" height="40" as="geometry">
            <mxRectangle width="226" height="40" as="alternateBounds" />
          </mxGeometry>
        </mxCell>
        <mxCell id="h8HGVI2y8s-tC2vq9ReO-32" style="shape=tableRow;horizontal=0;startSize=0;swimlaneHead=0;swimlaneBody=0;fillColor=none;collapsible=0;dropTarget=0;points=[[0,0.5],[1,0.5]];portConstraint=eastwest;top=0;left=0;right=0;bottom=1;html=1;" vertex="1" parent="h8HGVI2y8s-tC2vq9ReO-25">
          <mxGeometry y="120" width="326" height="20" as="geometry" />
        </mxCell>
        <mxCell id="h8HGVI2y8s-tC2vq9ReO-33" value="Mach &amp;amp; Heat" style="shape=partialRectangle;connectable=0;fillColor=none;top=0;left=0;bottom=0;right=0;fontStyle=1;overflow=hidden;html=1;whiteSpace=wrap;" vertex="1" parent="h8HGVI2y8s-tC2vq9ReO-32">
          <mxGeometry width="100" height="20" as="geometry">
            <mxRectangle width="100" height="20" as="alternateBounds" />
          </mxGeometry>
        </mxCell>
        <mxCell id="h8HGVI2y8s-tC2vq9ReO-34" value="very first cross-section radius" style="shape=partialRectangle;connectable=0;fillColor=none;top=0;left=0;bottom=0;right=0;align=center;spacingLeft=6;fontStyle=2;overflow=hidden;html=1;whiteSpace=wrap;" vertex="1" parent="h8HGVI2y8s-tC2vq9ReO-32">
          <mxGeometry x="100" width="226" height="20" as="geometry">
            <mxRectangle width="226" height="20" as="alternateBounds" />
          </mxGeometry>
        </mxCell>
        <mxCell id="h8HGVI2y8s-tC2vq9ReO-35" value="" style="edgeStyle=orthogonalEdgeStyle;rounded=0;orthogonalLoop=1;jettySize=auto;html=1;strokeWidth=2;" edge="1" parent="1" source="h8HGVI2y8s-tC2vq9ReO-36" target="h8HGVI2y8s-tC2vq9ReO-38">
          <mxGeometry relative="1" as="geometry" />
        </mxCell>
        <mxCell id="h8HGVI2y8s-tC2vq9ReO-36" value="for-j&lt;div&gt;{time}&lt;/div&gt;" style="rhombus;whiteSpace=wrap;html=1;fontSize=14;startSize=30;fontStyle=1;strokeWidth=2;" vertex="1" parent="1">
          <mxGeometry x="335" y="312" width="100" height="70" as="geometry" />
        </mxCell>
        <mxCell id="h8HGVI2y8s-tC2vq9ReO-37" style="edgeStyle=orthogonalEdgeStyle;rounded=0;orthogonalLoop=1;jettySize=auto;html=1;entryX=0.5;entryY=0;entryDx=0;entryDy=0;strokeWidth=2;" edge="1" parent="1" source="h8HGVI2y8s-tC2vq9ReO-38" target="h8HGVI2y8s-tC2vq9ReO-42">
          <mxGeometry relative="1" as="geometry" />
        </mxCell>
        <mxCell id="h8HGVI2y8s-tC2vq9ReO-38" value="t = time" style="whiteSpace=wrap;html=1;fontSize=12;startSize=30;fontStyle=0;strokeWidth=2;" vertex="1" parent="1">
          <mxGeometry x="345" y="402" width="80" height="30" as="geometry" />
        </mxCell>
        <mxCell id="h8HGVI2y8s-tC2vq9ReO-39" style="edgeStyle=orthogonalEdgeStyle;rounded=0;orthogonalLoop=1;jettySize=auto;html=1;entryX=0.5;entryY=0;entryDx=0;entryDy=0;strokeWidth=2;" edge="1" parent="1" source="h8HGVI2y8s-tC2vq9ReO-42">
          <mxGeometry relative="1" as="geometry">
            <mxPoint x="385" y="542" as="targetPoint" />
          </mxGeometry>
        </mxCell>
        <mxCell id="h8HGVI2y8s-tC2vq9ReO-40" style="edgeStyle=orthogonalEdgeStyle;rounded=0;orthogonalLoop=1;jettySize=auto;html=1;entryX=1;entryY=0.5;entryDx=0;entryDy=0;strokeWidth=2;" edge="1" parent="1" source="h8HGVI2y8s-tC2vq9ReO-42" target="h8HGVI2y8s-tC2vq9ReO-57">
          <mxGeometry relative="1" as="geometry">
            <Array as="points">
              <mxPoint x="571" y="487" />
              <mxPoint x="571" y="972" />
            </Array>
          </mxGeometry>
        </mxCell>
        <mxCell id="h8HGVI2y8s-tC2vq9ReO-41" value="&amp;nbsp;end-i&amp;nbsp;" style="edgeLabel;html=1;align=center;verticalAlign=middle;resizable=0;points=[];" vertex="1" connectable="0" parent="h8HGVI2y8s-tC2vq9ReO-40">
          <mxGeometry x="-0.8583" y="1" relative="1" as="geometry">
            <mxPoint x="13" y="1" as="offset" />
          </mxGeometry>
        </mxCell>
        <mxCell id="h8HGVI2y8s-tC2vq9ReO-42" value="for-i&lt;div&gt;{space}&lt;/div&gt;" style="rhombus;whiteSpace=wrap;html=1;fontSize=14;startSize=30;fontStyle=1;strokeWidth=2;" vertex="1" parent="1">
          <mxGeometry x="335" y="452" width="100" height="70" as="geometry" />
        </mxCell>
        <mxCell id="h8HGVI2y8s-tC2vq9ReO-43" value="" style="edgeStyle=orthogonalEdgeStyle;rounded=0;orthogonalLoop=1;jettySize=auto;html=1;strokeWidth=2;exitX=0.471;exitY=0.989;exitDx=0;exitDy=0;entryX=0.5;entryY=0;entryDx=0;entryDy=0;exitPerimeter=0;" edge="1" parent="1" source="h8HGVI2y8s-tC2vq9ReO-75" target="h8HGVI2y8s-tC2vq9ReO-47">
          <mxGeometry relative="1" as="geometry">
            <mxPoint x="377.5" y="572" as="sourcePoint" />
            <mxPoint x="375" y="591.5" as="targetPoint" />
          </mxGeometry>
        </mxCell>
        <mxCell id="h8HGVI2y8s-tC2vq9ReO-44" value="" style="edgeStyle=orthogonalEdgeStyle;rounded=0;orthogonalLoop=1;jettySize=auto;html=1;strokeWidth=2;" edge="1" parent="1" source="h8HGVI2y8s-tC2vq9ReO-47" target="h8HGVI2y8s-tC2vq9ReO-49">
          <mxGeometry relative="1" as="geometry" />
        </mxCell>
        <mxCell id="h8HGVI2y8s-tC2vq9ReO-45" value="&amp;nbsp;i == 1&amp;nbsp;" style="edgeLabel;html=1;align=center;verticalAlign=middle;resizable=0;points=[];" vertex="1" connectable="0" parent="h8HGVI2y8s-tC2vq9ReO-44">
          <mxGeometry relative="1" as="geometry">
            <mxPoint x="-19" as="offset" />
          </mxGeometry>
        </mxCell>
        <mxCell id="h8HGVI2y8s-tC2vq9ReO-46" style="edgeStyle=orthogonalEdgeStyle;rounded=0;orthogonalLoop=1;jettySize=auto;html=1;entryX=0.5;entryY=0;entryDx=0;entryDy=0;strokeWidth=2;" edge="1" parent="1" source="h8HGVI2y8s-tC2vq9ReO-47" target="h8HGVI2y8s-tC2vq9ReO-51">
          <mxGeometry relative="1" as="geometry" />
        </mxCell>
        <mxCell id="h8HGVI2y8s-tC2vq9ReO-47" value="if" style="rhombus;whiteSpace=wrap;html=1;fontSize=14;startSize=30;fontStyle=1;strokeWidth=2;" vertex="1" parent="1">
          <mxGeometry x="375" y="591.5" width="20" height="35" as="geometry" />
        </mxCell>
        <mxCell id="h8HGVI2y8s-tC2vq9ReO-48" style="edgeStyle=orthogonalEdgeStyle;rounded=0;orthogonalLoop=1;jettySize=auto;html=1;entryX=1;entryY=0.5;entryDx=0;entryDy=0;strokeWidth=2;" edge="1" parent="1" source="h8HGVI2y8s-tC2vq9ReO-49" target="h8HGVI2y8s-tC2vq9ReO-53">
          <mxGeometry relative="1" as="geometry" />
        </mxCell>
        <mxCell id="h8HGVI2y8s-tC2vq9ReO-49" value="Fuel mass flux rate&amp;nbsp;&lt;div&gt;NULL&lt;/div&gt;" style="rounded=1;whiteSpace=wrap;html=1;fontSize=12;startSize=30;fontStyle=0;strokeWidth=2;" vertex="1" parent="1">
          <mxGeometry x="425" y="647" width="130" height="40" as="geometry" />
        </mxCell>
        <mxCell id="h8HGVI2y8s-tC2vq9ReO-50" style="edgeStyle=orthogonalEdgeStyle;rounded=0;orthogonalLoop=1;jettySize=auto;html=1;entryX=0;entryY=0.5;entryDx=0;entryDy=0;strokeWidth=2;" edge="1" parent="1" source="h8HGVI2y8s-tC2vq9ReO-51" target="h8HGVI2y8s-tC2vq9ReO-53">
          <mxGeometry relative="1" as="geometry" />
        </mxCell>
        <mxCell id="h8HGVI2y8s-tC2vq9ReO-51" value="Use of Trapezi&#39;s integration model for estimate the fuel mass flux rate" style="rounded=1;whiteSpace=wrap;html=1;fontSize=12;startSize=30;fontStyle=0;strokeWidth=2;" vertex="1" parent="1">
          <mxGeometry x="215" y="632" width="130" height="70" as="geometry" />
        </mxCell>
        <mxCell id="h8HGVI2y8s-tC2vq9ReO-52" style="edgeStyle=orthogonalEdgeStyle;rounded=0;orthogonalLoop=1;jettySize=auto;html=1;exitX=0.5;exitY=1;exitDx=0;exitDy=0;entryX=0.5;entryY=0;entryDx=0;entryDy=0;strokeWidth=2;" edge="1" parent="1" source="h8HGVI2y8s-tC2vq9ReO-53" target="h8HGVI2y8s-tC2vq9ReO-55">
          <mxGeometry relative="1" as="geometry" />
        </mxCell>
        <mxCell id="h8HGVI2y8s-tC2vq9ReO-53" value="Propellant mass flux rate&lt;div&gt;G = G&lt;sub&gt;o&lt;/sub&gt; + G&lt;sub&gt;f&lt;/sub&gt;&lt;/div&gt;" style="rounded=1;whiteSpace=wrap;html=1;fontSize=12;startSize=30;fontStyle=0;strokeWidth=2;" vertex="1" parent="1">
          <mxGeometry x="307.5" y="722" width="155" height="40" as="geometry" />
        </mxCell>
        <mxCell id="h8HGVI2y8s-tC2vq9ReO-54" style="edgeStyle=orthogonalEdgeStyle;rounded=0;orthogonalLoop=1;jettySize=auto;html=1;entryX=0;entryY=0.5;entryDx=0;entryDy=0;strokeWidth=2;" edge="1" parent="1" source="h8HGVI2y8s-tC2vq9ReO-55" target="h8HGVI2y8s-tC2vq9ReO-42">
          <mxGeometry relative="1" as="geometry">
            <Array as="points">
              <mxPoint x="201" y="842" />
              <mxPoint x="201" y="487" />
            </Array>
          </mxGeometry>
        </mxCell>
        <mxCell id="h8HGVI2y8s-tC2vq9ReO-55" value="{time constant}&lt;div&gt;&lt;br&gt;&lt;/div&gt;&lt;div&gt;Regression rate&lt;/div&gt;&lt;div&gt;R&lt;sub&gt;dot&lt;/sub&gt; = a·G&lt;sup&gt;n·&lt;/sup&gt;x&lt;sup&gt;m&lt;/sup&gt;&lt;/div&gt;&lt;div&gt;&lt;br&gt;&lt;/div&gt;&lt;div&gt;Mass flow&lt;/div&gt;&lt;div&gt;w = G·A&lt;/div&gt;" style="rounded=1;whiteSpace=wrap;html=1;fontSize=12;startSize=30;fontStyle=0;strokeWidth=2;" vertex="1" parent="1">
          <mxGeometry x="333.25" y="782" width="103.5" height="120" as="geometry" />
        </mxCell>
        <mxCell id="h8HGVI2y8s-tC2vq9ReO-56" style="edgeStyle=orthogonalEdgeStyle;rounded=0;orthogonalLoop=1;jettySize=auto;html=1;entryX=0;entryY=0.5;entryDx=0;entryDy=0;strokeWidth=2;" edge="1" parent="1" source="h8HGVI2y8s-tC2vq9ReO-57" target="h8HGVI2y8s-tC2vq9ReO-36">
          <mxGeometry relative="1" as="geometry">
            <mxPoint x="271" y="462" as="targetPoint" />
            <Array as="points">
              <mxPoint x="191" y="972" />
              <mxPoint x="191" y="347" />
            </Array>
          </mxGeometry>
        </mxCell>
        <mxCell id="h8HGVI2y8s-tC2vq9ReO-57" value="{time variation}&lt;div&gt;&lt;br&gt;&lt;/div&gt;&lt;div&gt;Regression rate&lt;/div&gt;&lt;div&gt;R&lt;sub&gt;dot&lt;/sub&gt; = a·G&lt;sup&gt;n·&lt;/sup&gt;x&lt;sup&gt;m&lt;/sup&gt;&lt;/div&gt;&lt;div&gt;&lt;br&gt;&lt;/div&gt;&lt;div&gt;Mass flow&lt;/div&gt;&lt;div&gt;w = G·A&lt;/div&gt;" style="rounded=1;whiteSpace=wrap;html=1;fontSize=12;startSize=30;fontStyle=0;strokeWidth=2;" vertex="1" parent="1">
          <mxGeometry x="333.25" y="912" width="103.5" height="120" as="geometry" />
        </mxCell>
        <mxCell id="h8HGVI2y8s-tC2vq9ReO-58" style="edgeStyle=orthogonalEdgeStyle;rounded=0;orthogonalLoop=1;jettySize=auto;html=1;exitX=1;exitY=0.25;exitDx=0;exitDy=0;entryX=0.5;entryY=0;entryDx=0;entryDy=0;strokeWidth=2;" edge="1" parent="1" source="h8HGVI2y8s-tC2vq9ReO-59" target="h8HGVI2y8s-tC2vq9ReO-67">
          <mxGeometry relative="1" as="geometry">
            <Array as="points">
              <mxPoint x="641" y="392" />
              <mxPoint x="801" y="392" />
            </Array>
          </mxGeometry>
        </mxCell>
        <mxCell id="h8HGVI2y8s-tC2vq9ReO-59" value="Vectorial Results" style="swimlane;fontStyle=1;childLayout=stackLayout;horizontal=1;startSize=26;fillColor=default;horizontalStack=0;resizeParent=1;resizeParentMax=0;resizeLast=0;collapsible=1;marginBottom=0;html=1;fontSize=14;strokeWidth=2;" vertex="1" parent="1">
          <mxGeometry x="481" y="372" width="160" height="104" as="geometry" />
        </mxCell>
        <mxCell id="h8HGVI2y8s-tC2vq9ReO-60" value="Propellant Mass Flux Rate" style="text;strokeColor=none;fillColor=none;align=center;verticalAlign=top;spacingLeft=4;spacingRight=4;overflow=hidden;rotatable=0;points=[[0,0.5],[1,0.5]];portConstraint=eastwest;whiteSpace=wrap;html=1;fontStyle=2" vertex="1" parent="h8HGVI2y8s-tC2vq9ReO-59">
          <mxGeometry y="26" width="160" height="26" as="geometry" />
        </mxCell>
        <mxCell id="h8HGVI2y8s-tC2vq9ReO-61" value="Propellant Mass Flow" style="text;strokeColor=none;fillColor=none;align=center;verticalAlign=top;spacingLeft=4;spacingRight=4;overflow=hidden;rotatable=0;points=[[0,0.5],[1,0.5]];portConstraint=eastwest;whiteSpace=wrap;html=1;fontStyle=2" vertex="1" parent="h8HGVI2y8s-tC2vq9ReO-59">
          <mxGeometry y="52" width="160" height="26" as="geometry" />
        </mxCell>
        <mxCell id="h8HGVI2y8s-tC2vq9ReO-62" value="Regressed Radii" style="text;strokeColor=none;fillColor=none;align=center;verticalAlign=top;spacingLeft=4;spacingRight=4;overflow=hidden;rotatable=0;points=[[0,0.5],[1,0.5]];portConstraint=eastwest;whiteSpace=wrap;html=1;fontStyle=2" vertex="1" parent="h8HGVI2y8s-tC2vq9ReO-59">
          <mxGeometry y="78" width="160" height="26" as="geometry" />
        </mxCell>
        <mxCell id="h8HGVI2y8s-tC2vq9ReO-63" style="edgeStyle=orthogonalEdgeStyle;rounded=0;orthogonalLoop=1;jettySize=auto;html=1;exitX=1;exitY=0.5;exitDx=0;exitDy=0;entryX=0.5;entryY=0;entryDx=0;entryDy=0;strokeWidth=2;" edge="1" parent="1" source="h8HGVI2y8s-tC2vq9ReO-36" target="h8HGVI2y8s-tC2vq9ReO-59">
          <mxGeometry relative="1" as="geometry">
            <Array as="points">
              <mxPoint x="561" y="347" />
            </Array>
          </mxGeometry>
        </mxCell>
        <mxCell id="h8HGVI2y8s-tC2vq9ReO-64" value="&amp;nbsp;end-j&amp;nbsp;" style="edgeLabel;html=1;align=center;verticalAlign=middle;resizable=0;points=[];" vertex="1" connectable="0" parent="h8HGVI2y8s-tC2vq9ReO-63">
          <mxGeometry x="-0.4626" relative="1" as="geometry">
            <mxPoint x="18" as="offset" />
          </mxGeometry>
        </mxCell>
        <mxCell id="h8HGVI2y8s-tC2vq9ReO-65" style="edgeStyle=orthogonalEdgeStyle;rounded=0;orthogonalLoop=1;jettySize=auto;html=1;exitX=0.5;exitY=1;exitDx=0;exitDy=0;entryX=0.5;entryY=0;entryDx=0;entryDy=0;strokeWidth=2;" edge="1" parent="1" source="h8HGVI2y8s-tC2vq9ReO-67" target="h8HGVI2y8s-tC2vq9ReO-69">
          <mxGeometry relative="1" as="geometry" />
        </mxCell>
        <mxCell id="h8HGVI2y8s-tC2vq9ReO-66" style="edgeStyle=orthogonalEdgeStyle;rounded=0;orthogonalLoop=1;jettySize=auto;html=1;exitX=1;exitY=0.5;exitDx=0;exitDy=0;strokeWidth=2;" edge="1" parent="1" source="h8HGVI2y8s-tC2vq9ReO-67" target="h8HGVI2y8s-tC2vq9ReO-116">
          <mxGeometry relative="1" as="geometry">
            <Array as="points">
              <mxPoint x="991" y="487" />
              <mxPoint x="991" y="1622" />
              <mxPoint x="383" y="1622" />
            </Array>
          </mxGeometry>
        </mxCell>
        <mxCell id="h8HGVI2y8s-tC2vq9ReO-67" value="for-j&lt;div&gt;{time}&lt;/div&gt;" style="rhombus;whiteSpace=wrap;html=1;fontSize=14;startSize=30;fontStyle=1;strokeWidth=2;" vertex="1" parent="1">
          <mxGeometry x="751" y="452" width="100" height="70" as="geometry" />
        </mxCell>
        <mxCell id="h8HGVI2y8s-tC2vq9ReO-68" style="edgeStyle=orthogonalEdgeStyle;rounded=0;orthogonalLoop=1;jettySize=auto;html=1;exitX=0.5;exitY=1;exitDx=0;exitDy=0;entryX=0.5;entryY=0;entryDx=0;entryDy=0;strokeWidth=2;" edge="1" parent="1" source="h8HGVI2y8s-tC2vq9ReO-69" target="h8HGVI2y8s-tC2vq9ReO-72">
          <mxGeometry relative="1" as="geometry" />
        </mxCell>
        <mxCell id="h8HGVI2y8s-tC2vq9ReO-69" value="&lt;b&gt;&lt;font style=&quot;font-size: 14px;&quot;&gt;Reset Parameters&lt;/font&gt;&lt;/b&gt;&lt;div&gt;&lt;i&gt;initial total temperature, initial temperature, initial total pressure, initial gas density&lt;/i&gt;&lt;/div&gt;" style="rounded=1;whiteSpace=wrap;html=1;fontSize=12;startSize=30;fontStyle=0;strokeWidth=2;" vertex="1" parent="1">
          <mxGeometry x="703.5" y="542" width="195" height="70" as="geometry" />
        </mxCell>
        <mxCell id="h8HGVI2y8s-tC2vq9ReO-70" style="edgeStyle=orthogonalEdgeStyle;rounded=0;orthogonalLoop=1;jettySize=auto;html=1;exitX=0.5;exitY=1;exitDx=0;exitDy=0;entryX=0.5;entryY=0;entryDx=0;entryDy=0;strokeWidth=2;" edge="1" parent="1" source="h8HGVI2y8s-tC2vq9ReO-72" target="h8HGVI2y8s-tC2vq9ReO-74">
          <mxGeometry relative="1" as="geometry" />
        </mxCell>
        <mxCell id="h8HGVI2y8s-tC2vq9ReO-71" style="edgeStyle=orthogonalEdgeStyle;rounded=0;orthogonalLoop=1;jettySize=auto;html=1;exitX=1;exitY=0.5;exitDx=0;exitDy=0;entryX=1;entryY=0.5;entryDx=0;entryDy=0;strokeWidth=2;" edge="1" parent="1" source="h8HGVI2y8s-tC2vq9ReO-72" target="h8HGVI2y8s-tC2vq9ReO-115">
          <mxGeometry relative="1" as="geometry">
            <Array as="points">
              <mxPoint x="981" y="667" />
              <mxPoint x="981" y="1567" />
            </Array>
          </mxGeometry>
        </mxCell>
        <mxCell id="h8HGVI2y8s-tC2vq9ReO-72" value="for-i&lt;div&gt;{space}&lt;/div&gt;" style="rhombus;whiteSpace=wrap;html=1;fontSize=14;startSize=30;fontStyle=1;strokeWidth=2;" vertex="1" parent="1">
          <mxGeometry x="751" y="632" width="100" height="70" as="geometry" />
        </mxCell>
        <mxCell id="h8HGVI2y8s-tC2vq9ReO-73" style="edgeStyle=orthogonalEdgeStyle;rounded=0;orthogonalLoop=1;jettySize=auto;html=1;exitX=0.5;exitY=1;exitDx=0;exitDy=0;entryX=0.5;entryY=0;entryDx=0;entryDy=0;strokeWidth=2;" edge="1" parent="1" source="h8HGVI2y8s-tC2vq9ReO-74" target="h8HGVI2y8s-tC2vq9ReO-79">
          <mxGeometry relative="1" as="geometry" />
        </mxCell>
        <mxCell id="h8HGVI2y8s-tC2vq9ReO-74" value="x = space" style="rounded=1;whiteSpace=wrap;html=1;fontSize=12;startSize=30;fontStyle=0;strokeWidth=2;" vertex="1" parent="1">
          <mxGeometry x="763.5" y="722" width="75" height="30" as="geometry" />
        </mxCell>
        <mxCell id="h8HGVI2y8s-tC2vq9ReO-75" value="x = space" style="rounded=1;whiteSpace=wrap;html=1;fontSize=12;startSize=30;fontStyle=0;strokeWidth=2;" vertex="1" parent="1">
          <mxGeometry x="347.5" y="542" width="75" height="30" as="geometry" />
        </mxCell>
        <mxCell id="h8HGVI2y8s-tC2vq9ReO-76" style="edgeStyle=orthogonalEdgeStyle;rounded=0;orthogonalLoop=1;jettySize=auto;html=1;exitX=0;exitY=0.5;exitDx=0;exitDy=0;entryX=0.5;entryY=0;entryDx=0;entryDy=0;strokeWidth=2;" edge="1" parent="1" source="h8HGVI2y8s-tC2vq9ReO-79" target="h8HGVI2y8s-tC2vq9ReO-83">
          <mxGeometry relative="1" as="geometry" />
        </mxCell>
        <mxCell id="h8HGVI2y8s-tC2vq9ReO-77" value="&amp;nbsp;1 &amp;lt; i &amp;lt; N&amp;nbsp;" style="edgeLabel;html=1;align=center;verticalAlign=middle;resizable=0;points=[];" vertex="1" connectable="0" parent="h8HGVI2y8s-tC2vq9ReO-76">
          <mxGeometry x="-0.3524" y="1" relative="1" as="geometry">
            <mxPoint x="-6" y="-1" as="offset" />
          </mxGeometry>
        </mxCell>
        <mxCell id="h8HGVI2y8s-tC2vq9ReO-78" value="&amp;nbsp;i == N&amp;nbsp;" style="edgeStyle=orthogonalEdgeStyle;rounded=0;orthogonalLoop=1;jettySize=auto;html=1;exitX=1;exitY=0.5;exitDx=0;exitDy=0;entryX=0.5;entryY=0;entryDx=0;entryDy=0;strokeWidth=2;" edge="1" parent="1" source="h8HGVI2y8s-tC2vq9ReO-79" target="h8HGVI2y8s-tC2vq9ReO-81">
          <mxGeometry x="-0.2381" relative="1" as="geometry">
            <mxPoint as="offset" />
          </mxGeometry>
        </mxCell>
        <mxCell id="h8HGVI2y8s-tC2vq9ReO-79" value="if" style="rhombus;whiteSpace=wrap;html=1;fontSize=14;startSize=30;fontStyle=1;strokeWidth=2;" vertex="1" parent="1">
          <mxGeometry x="791" y="772" width="20" height="35" as="geometry" />
        </mxCell>
        <mxCell id="h8HGVI2y8s-tC2vq9ReO-80" style="edgeStyle=orthogonalEdgeStyle;rounded=0;orthogonalLoop=1;jettySize=auto;html=1;exitX=0.5;exitY=1;exitDx=0;exitDy=0;entryX=1;entryY=0.5;entryDx=0;entryDy=0;strokeWidth=2;" edge="1" parent="1" source="h8HGVI2y8s-tC2vq9ReO-81" target="h8HGVI2y8s-tC2vq9ReO-85">
          <mxGeometry relative="1" as="geometry" />
        </mxCell>
        <mxCell id="h8HGVI2y8s-tC2vq9ReO-81" value="all parameters&lt;div&gt;(j, i)&lt;/div&gt;" style="rounded=1;whiteSpace=wrap;html=1;fontSize=12;startSize=30;fontStyle=0;strokeWidth=2;" vertex="1" parent="1">
          <mxGeometry x="838.5" y="822" width="90" height="40" as="geometry" />
        </mxCell>
        <mxCell id="h8HGVI2y8s-tC2vq9ReO-82" style="edgeStyle=orthogonalEdgeStyle;rounded=0;orthogonalLoop=1;jettySize=auto;html=1;exitX=0.5;exitY=1;exitDx=0;exitDy=0;entryX=0;entryY=0.5;entryDx=0;entryDy=0;strokeWidth=2;" edge="1" parent="1" source="h8HGVI2y8s-tC2vq9ReO-83" target="h8HGVI2y8s-tC2vq9ReO-85">
          <mxGeometry relative="1" as="geometry" />
        </mxCell>
        <mxCell id="h8HGVI2y8s-tC2vq9ReO-83" value="parameters old (j,i)&lt;div&gt;new (j,i+1)&lt;/div&gt;" style="rounded=1;whiteSpace=wrap;html=1;fontSize=12;startSize=30;fontStyle=0;strokeWidth=2;" vertex="1" parent="1">
          <mxGeometry x="663.5" y="817" width="100" height="50" as="geometry" />
        </mxCell>
        <mxCell id="h8HGVI2y8s-tC2vq9ReO-84" style="edgeStyle=orthogonalEdgeStyle;rounded=0;orthogonalLoop=1;jettySize=auto;html=1;exitX=0.5;exitY=1;exitDx=0;exitDy=0;entryX=0.5;entryY=0;entryDx=0;entryDy=0;strokeWidth=2;" edge="1" parent="1" source="h8HGVI2y8s-tC2vq9ReO-85" target="h8HGVI2y8s-tC2vq9ReO-99">
          <mxGeometry relative="1" as="geometry" />
        </mxCell>
        <mxCell id="h8HGVI2y8s-tC2vq9ReO-85" value="Radii, Mass Flow" style="rounded=1;whiteSpace=wrap;html=1;fontSize=12;startSize=30;fontStyle=0;strokeWidth=2;" vertex="1" parent="1">
          <mxGeometry x="747.25" y="882" width="107.5" height="40" as="geometry" />
        </mxCell>
        <mxCell id="h8HGVI2y8s-tC2vq9ReO-86" style="edgeStyle=orthogonalEdgeStyle;rounded=0;orthogonalLoop=1;jettySize=auto;html=1;exitX=0;exitY=0.5;exitDx=0;exitDy=0;entryX=0.5;entryY=0;entryDx=0;entryDy=0;fontStyle=0;strokeWidth=2;" edge="1" parent="1" source="h8HGVI2y8s-tC2vq9ReO-89" target="h8HGVI2y8s-tC2vq9ReO-93">
          <mxGeometry relative="1" as="geometry" />
        </mxCell>
        <mxCell id="h8HGVI2y8s-tC2vq9ReO-87" style="edgeStyle=orthogonalEdgeStyle;rounded=0;orthogonalLoop=1;jettySize=auto;html=1;exitX=1;exitY=0.5;exitDx=0;exitDy=0;entryX=0.5;entryY=0;entryDx=0;entryDy=0;fontStyle=0;strokeWidth=2;" edge="1" parent="1" source="h8HGVI2y8s-tC2vq9ReO-89" target="h8HGVI2y8s-tC2vq9ReO-91">
          <mxGeometry relative="1" as="geometry" />
        </mxCell>
        <mxCell id="h8HGVI2y8s-tC2vq9ReO-88" value="&amp;nbsp;i == 1&amp;nbsp;" style="edgeLabel;html=1;align=center;verticalAlign=middle;resizable=0;points=[];" vertex="1" connectable="0" parent="h8HGVI2y8s-tC2vq9ReO-87">
          <mxGeometry x="-0.3217" y="-1" relative="1" as="geometry">
            <mxPoint y="1" as="offset" />
          </mxGeometry>
        </mxCell>
        <mxCell id="h8HGVI2y8s-tC2vq9ReO-89" value="if" style="rhombus;whiteSpace=wrap;html=1;fontSize=14;startSize=30;fontStyle=1;strokeWidth=2;" vertex="1" parent="1">
          <mxGeometry x="729.75" y="1002" width="20" height="35" as="geometry" />
        </mxCell>
        <mxCell id="h8HGVI2y8s-tC2vq9ReO-90" style="edgeStyle=orthogonalEdgeStyle;rounded=0;orthogonalLoop=1;jettySize=auto;html=1;entryX=1;entryY=0.5;entryDx=0;entryDy=0;fontStyle=0;strokeWidth=2;" edge="1" parent="1" source="h8HGVI2y8s-tC2vq9ReO-91" target="h8HGVI2y8s-tC2vq9ReO-95">
          <mxGeometry relative="1" as="geometry" />
        </mxCell>
        <mxCell id="h8HGVI2y8s-tC2vq9ReO-91" value="&lt;span style=&quot;font-size: 14px;&quot;&gt;&lt;b&gt;Variations&lt;/b&gt;&lt;/span&gt;&lt;br&gt;&lt;div&gt;&lt;span&gt;Initial port area&lt;/span&gt;&lt;/div&gt;&lt;div&gt;&lt;span&gt;initial gas velocity&lt;/span&gt;&lt;/div&gt;&lt;div&gt;&lt;span&gt;initial Mach number&lt;/span&gt;&lt;/div&gt;" style="rounded=1;whiteSpace=wrap;html=1;fontSize=12;startSize=30;fontStyle=0;strokeWidth=2;" vertex="1" parent="1">
          <mxGeometry x="777.25" y="1042" width="130" height="70" as="geometry" />
        </mxCell>
        <mxCell id="h8HGVI2y8s-tC2vq9ReO-92" style="edgeStyle=orthogonalEdgeStyle;rounded=0;orthogonalLoop=1;jettySize=auto;html=1;exitX=0.5;exitY=1;exitDx=0;exitDy=0;entryX=0;entryY=0.5;entryDx=0;entryDy=0;fontStyle=0;strokeWidth=2;" edge="1" parent="1" source="h8HGVI2y8s-tC2vq9ReO-93" target="h8HGVI2y8s-tC2vq9ReO-95">
          <mxGeometry relative="1" as="geometry" />
        </mxCell>
        <mxCell id="h8HGVI2y8s-tC2vq9ReO-93" value="Mach number constant" style="rounded=1;whiteSpace=wrap;html=1;fontSize=12;startSize=30;fontStyle=0;strokeWidth=2;" vertex="1" parent="1">
          <mxGeometry x="611" y="1057" width="91.25" height="40" as="geometry" />
        </mxCell>
        <mxCell id="h8HGVI2y8s-tC2vq9ReO-94" style="edgeStyle=orthogonalEdgeStyle;rounded=0;orthogonalLoop=1;jettySize=auto;html=1;exitX=0.5;exitY=1;exitDx=0;exitDy=0;entryX=0;entryY=0.5;entryDx=0;entryDy=0;strokeWidth=2;" edge="1" parent="1" source="h8HGVI2y8s-tC2vq9ReO-95" target="h8HGVI2y8s-tC2vq9ReO-103">
          <mxGeometry relative="1" as="geometry">
            <Array as="points">
              <mxPoint x="751" y="1196" />
            </Array>
          </mxGeometry>
        </mxCell>
        <mxCell id="h8HGVI2y8s-tC2vq9ReO-95" value="Initial Mach number" style="rounded=1;whiteSpace=wrap;html=1;fontSize=12;startSize=30;fontStyle=0;strokeWidth=2;" vertex="1" parent="1">
          <mxGeometry x="691" y="1132" width="120" height="30" as="geometry" />
        </mxCell>
        <mxCell id="h8HGVI2y8s-tC2vq9ReO-96" style="edgeStyle=orthogonalEdgeStyle;rounded=0;orthogonalLoop=1;jettySize=auto;html=1;exitX=0;exitY=0.5;exitDx=0;exitDy=0;entryX=0.5;entryY=0;entryDx=0;entryDy=0;strokeWidth=2;" edge="1" parent="1" source="h8HGVI2y8s-tC2vq9ReO-99" target="h8HGVI2y8s-tC2vq9ReO-89">
          <mxGeometry relative="1" as="geometry" />
        </mxCell>
        <mxCell id="h8HGVI2y8s-tC2vq9ReO-97" style="edgeStyle=orthogonalEdgeStyle;rounded=0;orthogonalLoop=1;jettySize=auto;html=1;exitX=1;exitY=0.5;exitDx=0;exitDy=0;entryX=0.5;entryY=0;entryDx=0;entryDy=0;strokeWidth=2;" edge="1" parent="1" source="h8HGVI2y8s-tC2vq9ReO-99" target="h8HGVI2y8s-tC2vq9ReO-101">
          <mxGeometry relative="1" as="geometry" />
        </mxCell>
        <mxCell id="h8HGVI2y8s-tC2vq9ReO-98" value="&amp;nbsp;j == 1&amp;nbsp;&lt;div&gt;i == 1&lt;/div&gt;" style="edgeLabel;html=1;align=center;verticalAlign=middle;resizable=0;points=[];" vertex="1" connectable="0" parent="h8HGVI2y8s-tC2vq9ReO-97">
          <mxGeometry x="-0.0958" y="2" relative="1" as="geometry">
            <mxPoint as="offset" />
          </mxGeometry>
        </mxCell>
        <mxCell id="h8HGVI2y8s-tC2vq9ReO-99" value="if" style="rhombus;whiteSpace=wrap;html=1;fontSize=14;startSize=30;fontStyle=1;strokeWidth=2;" vertex="1" parent="1">
          <mxGeometry x="791" y="942" width="20" height="35" as="geometry" />
        </mxCell>
        <mxCell id="h8HGVI2y8s-tC2vq9ReO-100" style="edgeStyle=orthogonalEdgeStyle;rounded=0;orthogonalLoop=1;jettySize=auto;html=1;entryX=1;entryY=0.5;entryDx=0;entryDy=0;strokeWidth=2;" edge="1" parent="1" source="h8HGVI2y8s-tC2vq9ReO-101" target="h8HGVI2y8s-tC2vq9ReO-103">
          <mxGeometry relative="1" as="geometry">
            <Array as="points">
              <mxPoint x="927" y="1196" />
            </Array>
          </mxGeometry>
        </mxCell>
        <mxCell id="h8HGVI2y8s-tC2vq9ReO-101" value="Reset&lt;div&gt;Mach number&lt;/div&gt;" style="rounded=1;whiteSpace=wrap;html=1;fontSize=12;startSize=30;fontStyle=0;strokeWidth=2;" vertex="1" parent="1">
          <mxGeometry x="881" y="992" width="91.25" height="40" as="geometry" />
        </mxCell>
        <mxCell id="h8HGVI2y8s-tC2vq9ReO-102" style="edgeStyle=orthogonalEdgeStyle;rounded=0;orthogonalLoop=1;jettySize=auto;html=1;exitX=0.75;exitY=1;exitDx=0;exitDy=0;entryX=1;entryY=0.25;entryDx=0;entryDy=0;strokeWidth=2;" edge="1" parent="1" source="h8HGVI2y8s-tC2vq9ReO-103" target="h8HGVI2y8s-tC2vq9ReO-105">
          <mxGeometry relative="1" as="geometry" />
        </mxCell>
        <mxCell id="h8HGVI2y8s-tC2vq9ReO-103" value="Initial Mach number" style="rounded=1;whiteSpace=wrap;html=1;fontSize=12;startSize=30;fontStyle=0;strokeWidth=2;" vertex="1" parent="1">
          <mxGeometry x="771" y="1181" width="120" height="30" as="geometry" />
        </mxCell>
        <mxCell id="h8HGVI2y8s-tC2vq9ReO-104" style="edgeStyle=orthogonalEdgeStyle;rounded=0;orthogonalLoop=1;jettySize=auto;html=1;exitX=1;exitY=0.75;exitDx=0;exitDy=0;entryX=0;entryY=0.5;entryDx=0;entryDy=0;strokeWidth=2;" edge="1" parent="1" source="h8HGVI2y8s-tC2vq9ReO-105" target="h8HGVI2y8s-tC2vq9ReO-107">
          <mxGeometry relative="1" as="geometry" />
        </mxCell>
        <mxCell id="h8HGVI2y8s-tC2vq9ReO-105" value="&lt;b&gt;&lt;font style=&quot;font-size: 14px;&quot;&gt;New parameters&lt;/font&gt;&lt;/b&gt;&lt;div&gt;&lt;i&gt;hydraulic diameter, total temperature, dynamic viscosity, friction factor&lt;/i&gt;&lt;/div&gt;" style="rounded=1;whiteSpace=wrap;html=1;fontSize=12;startSize=30;fontStyle=0;strokeWidth=2;" vertex="1" parent="1">
          <mxGeometry x="626" y="1222" width="195" height="70" as="geometry" />
        </mxCell>
        <mxCell id="h8HGVI2y8s-tC2vq9ReO-106" style="edgeStyle=orthogonalEdgeStyle;rounded=0;orthogonalLoop=1;jettySize=auto;html=1;exitX=0.5;exitY=1;exitDx=0;exitDy=0;entryX=0.5;entryY=0;entryDx=0;entryDy=0;strokeWidth=2;" edge="1" parent="1" source="h8HGVI2y8s-tC2vq9ReO-107" target="h8HGVI2y8s-tC2vq9ReO-109">
          <mxGeometry relative="1" as="geometry" />
        </mxCell>
        <mxCell id="h8HGVI2y8s-tC2vq9ReO-107" value="Vector &lt;b&gt;Forcers&lt;/b&gt;" style="rounded=1;whiteSpace=wrap;html=1;fontSize=12;startSize=30;fontStyle=0;strokeWidth=2;" vertex="1" parent="1">
          <mxGeometry x="872.25" y="1272" width="100" height="30" as="geometry" />
        </mxCell>
        <mxCell id="h8HGVI2y8s-tC2vq9ReO-108" style="edgeStyle=orthogonalEdgeStyle;rounded=0;orthogonalLoop=1;jettySize=auto;html=1;exitX=0;exitY=0.5;exitDx=0;exitDy=0;entryX=1;entryY=0.5;entryDx=0;entryDy=0;strokeWidth=2;" edge="1" parent="1" source="h8HGVI2y8s-tC2vq9ReO-109" target="h8HGVI2y8s-tC2vq9ReO-111">
          <mxGeometry relative="1" as="geometry" />
        </mxCell>
        <mxCell id="h8HGVI2y8s-tC2vq9ReO-109" value="&lt;span style=&quot;font-size: 14px;&quot;&gt;&lt;b&gt;MCI&lt;/b&gt;&lt;/span&gt;&lt;div&gt;&lt;span style=&quot;font-size: 14px;&quot;&gt;Matrix of the Coefficients of Influence&lt;/span&gt;&lt;/div&gt;" style="rounded=1;whiteSpace=wrap;html=1;fontSize=12;startSize=30;fontStyle=0;strokeWidth=2;" vertex="1" parent="1">
          <mxGeometry x="873.5" y="1327" width="98.75" height="70" as="geometry" />
        </mxCell>
        <mxCell id="h8HGVI2y8s-tC2vq9ReO-110" style="edgeStyle=orthogonalEdgeStyle;rounded=0;orthogonalLoop=1;jettySize=auto;html=1;entryX=0.5;entryY=0;entryDx=0;entryDy=0;strokeWidth=2;" edge="1" parent="1" source="h8HGVI2y8s-tC2vq9ReO-111" target="h8HGVI2y8s-tC2vq9ReO-113">
          <mxGeometry relative="1" as="geometry" />
        </mxCell>
        <mxCell id="h8HGVI2y8s-tC2vq9ReO-111" value="&lt;b&gt;&lt;font style=&quot;font-size: 14px;&quot;&gt;Reactions&lt;/font&gt;&lt;/b&gt;&lt;div&gt;{&lt;b&gt;React&lt;/b&gt;} = [&lt;b&gt;MCI&lt;/b&gt;]•{&lt;b&gt;Forcers&lt;/b&gt;}&lt;/div&gt;&lt;div&gt;&lt;br&gt;&lt;/div&gt;&lt;div&gt;&lt;b&gt;&lt;font style=&quot;font-size: 14px;&quot;&gt;Characteristics of the Flow&lt;/font&gt;&lt;/b&gt;&lt;/div&gt;&lt;div&gt;&lt;i&gt;Mach number, Temperature, Density, Total Pressure,...&lt;/i&gt;&lt;/div&gt;" style="rounded=1;whiteSpace=wrap;html=1;fontSize=12;startSize=30;fontStyle=0;strokeWidth=2;" vertex="1" parent="1">
          <mxGeometry x="626" y="1312" width="195" height="100" as="geometry" />
        </mxCell>
        <mxCell id="h8HGVI2y8s-tC2vq9ReO-112" style="edgeStyle=orthogonalEdgeStyle;rounded=0;orthogonalLoop=1;jettySize=auto;html=1;exitX=0;exitY=0.5;exitDx=0;exitDy=0;entryX=0;entryY=0.5;entryDx=0;entryDy=0;strokeWidth=2;" edge="1" parent="1" source="h8HGVI2y8s-tC2vq9ReO-113" target="h8HGVI2y8s-tC2vq9ReO-72">
          <mxGeometry relative="1" as="geometry">
            <mxPoint x="631" y="772" as="targetPoint" />
            <Array as="points">
              <mxPoint x="601" y="1487" />
              <mxPoint x="601" y="667" />
            </Array>
          </mxGeometry>
        </mxCell>
        <mxCell id="h8HGVI2y8s-tC2vq9ReO-113" value="{time constant}&lt;div&gt;&lt;br&gt;&lt;/div&gt;&lt;div&gt;Vectorization, and ready for next step&lt;/div&gt;" style="rounded=1;whiteSpace=wrap;html=1;fontSize=12;startSize=30;fontStyle=0;strokeWidth=2;" vertex="1" parent="1">
          <mxGeometry x="745.38" y="1452" width="111.25" height="70" as="geometry" />
        </mxCell>
        <mxCell id="h8HGVI2y8s-tC2vq9ReO-114" style="edgeStyle=orthogonalEdgeStyle;rounded=0;orthogonalLoop=1;jettySize=auto;html=1;exitX=0;exitY=0.5;exitDx=0;exitDy=0;entryX=0;entryY=0.5;entryDx=0;entryDy=0;strokeWidth=2;" edge="1" parent="1" source="h8HGVI2y8s-tC2vq9ReO-115" target="h8HGVI2y8s-tC2vq9ReO-67">
          <mxGeometry relative="1" as="geometry">
            <Array as="points">
              <mxPoint x="591" y="1567" />
              <mxPoint x="591" y="487" />
            </Array>
          </mxGeometry>
        </mxCell>
        <mxCell id="h8HGVI2y8s-tC2vq9ReO-115" value="{time constant}&lt;div&gt;&lt;br&gt;&lt;/div&gt;&lt;div&gt;Vectorization, and ready for next step&lt;/div&gt;" style="rounded=1;whiteSpace=wrap;html=1;fontSize=12;startSize=30;fontStyle=0;strokeWidth=2;" vertex="1" parent="1">
          <mxGeometry x="745.38" y="1532" width="111.25" height="70" as="geometry" />
        </mxCell>
        <mxCell id="h8HGVI2y8s-tC2vq9ReO-116" value="Vectorial Results" style="swimlane;fontStyle=1;childLayout=stackLayout;horizontal=1;startSize=26;fillColor=default;horizontalStack=0;resizeParent=1;resizeParentMax=0;resizeLast=0;collapsible=1;marginBottom=0;html=1;fontSize=14;strokeWidth=2;" vertex="1" parent="1">
          <mxGeometry x="302.5" y="1472" width="160" height="106" as="geometry" />
        </mxCell>
        <mxCell id="h8HGVI2y8s-tC2vq9ReO-117" value="Mach Number" style="text;strokeColor=none;fillColor=none;align=center;verticalAlign=top;spacingLeft=4;spacingRight=4;overflow=hidden;rotatable=0;points=[[0,0.5],[1,0.5]];portConstraint=eastwest;whiteSpace=wrap;html=1;fontStyle=2" vertex="1" parent="h8HGVI2y8s-tC2vq9ReO-116">
          <mxGeometry y="26" width="160" height="26" as="geometry" />
        </mxCell>
        <mxCell id="h8HGVI2y8s-tC2vq9ReO-118" value="Temperature" style="text;strokeColor=none;fillColor=none;align=center;verticalAlign=top;spacingLeft=4;spacingRight=4;overflow=hidden;rotatable=0;points=[[0,0.5],[1,0.5]];portConstraint=eastwest;whiteSpace=wrap;html=1;fontStyle=2" vertex="1" parent="h8HGVI2y8s-tC2vq9ReO-116">
          <mxGeometry y="52" width="160" height="28" as="geometry" />
        </mxCell>
        <mxCell id="h8HGVI2y8s-tC2vq9ReO-119" value="Total Pressure" style="text;strokeColor=none;fillColor=none;align=center;verticalAlign=top;spacingLeft=4;spacingRight=4;overflow=hidden;rotatable=0;points=[[0,0.5],[1,0.5]];portConstraint=eastwest;whiteSpace=wrap;html=1;fontStyle=2" vertex="1" parent="h8HGVI2y8s-tC2vq9ReO-116">
          <mxGeometry y="80" width="160" height="26" as="geometry" />
        </mxCell>
        <mxCell id="h8HGVI2y8s-tC2vq9ReO-120" value="&lt;b&gt;&lt;font style=&quot;font-size: 14px;&quot;&gt;Diagrams along the length of the solid fuel and of the burning time&lt;/font&gt;&lt;/b&gt;&lt;div&gt;&lt;br&gt;&lt;/div&gt;&lt;div&gt;&lt;i&gt;Regressed Radii&lt;/i&gt;&lt;/div&gt;&lt;div&gt;&lt;i&gt;Mach Number&lt;/i&gt;&lt;/div&gt;&lt;div&gt;&lt;i&gt;Temperature&lt;/i&gt;&lt;/div&gt;&lt;div&gt;&lt;i&gt;Total Pressure&lt;/i&gt;&lt;/div&gt;" style="shape=document;whiteSpace=wrap;html=1;boundedLbl=1;strokeWidth=2;" vertex="1" parent="1">
          <mxGeometry x="292.5" y="1052" width="180" height="170" as="geometry" />
        </mxCell>
        <mxCell id="h8HGVI2y8s-tC2vq9ReO-121" style="edgeStyle=orthogonalEdgeStyle;rounded=0;orthogonalLoop=1;jettySize=auto;html=1;exitX=0.5;exitY=0;exitDx=0;exitDy=0;entryX=1.001;entryY=0.687;entryDx=0;entryDy=0;entryPerimeter=0;strokeWidth=2;dashed=1;endSize=6;" edge="1" parent="1" source="h8HGVI2y8s-tC2vq9ReO-116" target="h8HGVI2y8s-tC2vq9ReO-120">
          <mxGeometry relative="1" as="geometry">
            <mxPoint x="382" y="1312" as="targetPoint" />
            <Array as="points">
              <mxPoint x="382" y="1452" />
              <mxPoint x="581" y="1452" />
              <mxPoint x="581" y="1169" />
            </Array>
          </mxGeometry>
        </mxCell>
        <mxCell id="h8HGVI2y8s-tC2vq9ReO-122" style="edgeStyle=orthogonalEdgeStyle;rounded=0;orthogonalLoop=1;jettySize=auto;html=1;entryX=1;entryY=0.25;entryDx=0;entryDy=0;strokeWidth=2;dashed=1;" edge="1" parent="1" source="h8HGVI2y8s-tC2vq9ReO-62" target="h8HGVI2y8s-tC2vq9ReO-120">
          <mxGeometry relative="1" as="geometry">
            <Array as="points">
              <mxPoint x="581" y="1095" />
            </Array>
          </mxGeometry>
        </mxCell>
      </root>
    </mxGraphModel>
  </diagram>
</mxfile>
